<svg width="279" height="95" viewBox="0 0 279 95" fill="none" xmlns="http://www.w3.org/2000/svg">
<g clip-path="url(#clip0_7_34)">
<rect width="279" height="95" fill="white"/>
<rect width="279" height="95" fill="#890A00"/>
<path d="M78.9917 42.8C80.8217 43.19 82.2917 44.105 83.4017 45.545C84.5117 46.955 85.0667 48.575 85.0667 50.405C85.0667 53.045 84.1367 55.145 82.2767 56.705C80.4467 58.235 77.8817 59 74.5817 59H59.8667V27.41H74.0867C77.2967 27.41 79.8017 28.145 81.6017 29.615C83.4317 31.085 84.3467 33.08 84.3467 35.6C84.3467 37.46 83.8517 39.005 82.8617 40.235C81.9017 41.465 80.6117 42.32 78.9917 42.8ZM67.5617 40.19H72.6017C73.8617 40.19 74.8217 39.92 75.4817 39.38C76.1717 38.81 76.5167 37.985 76.5167 36.905C76.5167 35.825 76.1717 35 75.4817 34.43C74.8217 33.86 73.8617 33.575 72.6017 33.575H67.5617V40.19ZM73.2317 52.79C74.5217 52.79 75.5117 52.505 76.2017 51.935C76.9217 51.335 77.2817 50.48 77.2817 49.37C77.2817 48.26 76.9067 47.39 76.1567 46.76C75.4367 46.13 74.4317 45.815 73.1417 45.815H67.5617V52.79H73.2317ZM109.195 53.42H97.4047L95.5147 59H87.4597L98.8897 27.41H107.8L119.23 59H111.085L109.195 53.42ZM107.215 47.48L103.3 35.915L99.4297 47.48H107.215ZM138.818 59L132.248 47.075H130.403V59H122.708V27.41H135.623C138.113 27.41 140.228 27.845 141.968 28.715C143.738 29.585 145.058 30.785 145.928 32.315C146.798 33.815 147.233 35.495 147.233 37.355C147.233 39.455 146.633 41.33 145.433 42.98C144.263 44.63 142.523 45.8 140.213 46.49L147.503 59H138.818ZM130.403 41.63H135.173C136.583 41.63 137.633 41.285 138.323 40.595C139.043 39.905 139.403 38.93 139.403 37.67C139.403 36.47 139.043 35.525 138.323 34.835C137.633 34.145 136.583 33.8 135.173 33.8H130.403V41.63ZM174.789 27.41V33.575H166.419V59H158.724V33.575H150.354V27.41H174.789ZM186.346 27.41V59H178.651V27.41H186.346ZM199.617 53.06H209.697V59H191.922V27.41H199.617V53.06ZM221.063 33.575V39.965H231.368V45.905H221.063V52.835H232.718V59H213.368V27.41H232.718V33.575H221.063Z" fill="white"/>
<path d="M65.171 67.632C65.171 68.0207 65.0793 68.3873 64.896 68.732C64.7127 69.0767 64.4193 69.359 64.016 69.579C63.6127 69.7917 63.0957 69.898 62.465 69.898H61.079V73H59.825V65.355H62.465C63.0517 65.355 63.5467 65.4577 63.95 65.663C64.3607 65.861 64.665 66.1323 64.863 66.477C65.0683 66.8217 65.171 67.2067 65.171 67.632ZM62.465 68.875C62.9417 68.875 63.2973 68.7687 63.532 68.556C63.7667 68.336 63.884 68.028 63.884 67.632C63.884 66.796 63.411 66.378 62.465 66.378H61.079V68.875H62.465ZM74.133 73L72.373 69.942H71.416V73H70.162V65.355H72.802C73.3887 65.355 73.8837 65.4577 74.287 65.663C74.6977 65.8683 75.002 66.1433 75.2 66.488C75.4053 66.8327 75.508 67.2177 75.508 67.643C75.508 68.1417 75.3613 68.5963 75.068 69.007C74.782 69.4103 74.3383 69.6853 73.737 69.832L75.629 73H74.133ZM71.416 68.941H72.802C73.2713 68.941 73.6233 68.8237 73.858 68.589C74.1 68.3543 74.221 68.039 74.221 67.643C74.221 67.247 74.1037 66.939 73.869 66.719C73.6343 66.4917 73.2787 66.378 72.802 66.378H71.416V68.941ZM82.1612 66.367V68.611H84.8012V69.634H82.1612V71.977H85.1312V73H80.9072V65.344H85.1312V66.367H82.1612ZM98.5227 65.355V73H97.2687V67.764L94.9367 73H94.0677L91.7247 67.764V73H90.4707V65.355H91.8237L94.5077 71.35L97.1807 65.355H98.5227ZM105.22 65.355V73H103.966V65.355H105.22ZM111.904 65.355V70.228C111.904 70.8073 112.055 71.2437 112.355 71.537C112.663 71.8303 113.089 71.977 113.631 71.977C114.181 71.977 114.607 71.8303 114.907 71.537C115.215 71.2437 115.369 70.8073 115.369 70.228V65.355H116.623V70.206C116.623 70.8293 116.488 71.3573 116.216 71.79C115.945 72.2227 115.582 72.5453 115.127 72.758C114.673 72.9707 114.17 73.077 113.62 73.077C113.07 73.077 112.568 72.9707 112.113 72.758C111.666 72.5453 111.31 72.2227 111.046 71.79C110.782 71.3573 110.65 70.8293 110.65 70.206V65.355H111.904ZM130.103 65.355V73H128.849V67.764L126.517 73H125.648L123.305 67.764V73H122.051V65.355H123.404L126.088 71.35L128.761 65.355H130.103ZM146.17 73L144.41 69.942H143.453V73H142.199V65.355H144.839C145.425 65.355 145.92 65.4577 146.324 65.663C146.734 65.8683 147.039 66.1433 147.237 66.488C147.442 66.8327 147.545 67.2177 147.545 67.643C147.545 68.1417 147.398 68.5963 147.105 69.007C146.819 69.4103 146.375 69.6853 145.774 69.832L147.666 73H146.17ZM143.453 68.941H144.839C145.308 68.941 145.66 68.8237 145.895 68.589C146.137 68.3543 146.258 68.039 146.258 67.643C146.258 67.247 146.14 66.939 145.906 66.719C145.671 66.4917 145.315 66.378 144.839 66.378H143.453V68.941ZM156.431 73.077C155.72 73.077 155.063 72.912 154.462 72.582C153.868 72.2447 153.395 71.779 153.043 71.185C152.698 70.5837 152.526 69.909 152.526 69.161C152.526 68.413 152.698 67.742 153.043 67.148C153.395 66.554 153.868 66.092 154.462 65.762C155.063 65.4247 155.72 65.256 156.431 65.256C157.15 65.256 157.806 65.4247 158.4 65.762C159.001 66.092 159.474 66.554 159.819 67.148C160.164 67.742 160.336 68.413 160.336 69.161C160.336 69.909 160.164 70.5837 159.819 71.185C159.474 71.779 159.001 72.2447 158.4 72.582C157.806 72.912 157.15 73.077 156.431 73.077ZM156.431 71.988C156.937 71.988 157.388 71.8743 157.784 71.647C158.18 71.4123 158.488 71.0823 158.708 70.657C158.935 70.2243 159.049 69.7257 159.049 69.161C159.049 68.5963 158.935 68.1013 158.708 67.676C158.488 67.2507 158.18 66.9243 157.784 66.697C157.388 66.4697 156.937 66.356 156.431 66.356C155.925 66.356 155.474 66.4697 155.078 66.697C154.682 66.9243 154.37 67.2507 154.143 67.676C153.923 68.1013 153.813 68.5963 153.813 69.161C153.813 69.7257 153.923 70.2243 154.143 70.657C154.37 71.0823 154.682 71.4123 155.078 71.647C155.474 71.8743 155.925 71.988 156.431 71.988ZM168.852 73.077C168.141 73.077 167.484 72.912 166.883 72.582C166.289 72.2447 165.816 71.779 165.464 71.185C165.119 70.5837 164.947 69.909 164.947 69.161C164.947 68.413 165.119 67.742 165.464 67.148C165.816 66.554 166.289 66.092 166.883 65.762C167.484 65.4247 168.141 65.256 168.852 65.256C169.571 65.256 170.227 65.4247 170.821 65.762C171.422 66.092 171.895 66.554 172.24 67.148C172.585 67.742 172.757 68.413 172.757 69.161C172.757 69.909 172.585 70.5837 172.24 71.185C171.895 71.779 171.422 72.2447 170.821 72.582C170.227 72.912 169.571 73.077 168.852 73.077ZM168.852 71.988C169.358 71.988 169.809 71.8743 170.205 71.647C170.601 71.4123 170.909 71.0823 171.129 70.657C171.356 70.2243 171.47 69.7257 171.47 69.161C171.47 68.5963 171.356 68.1013 171.129 67.676C170.909 67.2507 170.601 66.9243 170.205 66.697C169.809 66.4697 169.358 66.356 168.852 66.356C168.346 66.356 167.895 66.4697 167.499 66.697C167.103 66.9243 166.791 67.2507 166.564 67.676C166.344 68.1013 166.234 68.5963 166.234 69.161C166.234 69.7257 166.344 70.2243 166.564 70.657C166.791 71.0823 167.103 71.4123 167.499 71.647C167.895 71.8743 168.346 71.988 168.852 71.988ZM182.285 65.355V66.378H179.04V68.633H181.57V69.656H179.04V73H177.786V65.355H182.285ZM198.833 65.355V66.378H196.798V73H195.544V66.378H193.498V65.355H198.833ZM205.152 65.355V73H203.898V65.355H205.152ZM211.848 71.988H214.433V73H210.594V65.355H211.848V71.988ZM220.53 66.367V68.611H223.17V69.634H220.53V71.977H223.5V73H219.276V65.344H223.5V66.367H220.53ZM231.359 73.077C230.846 73.077 230.384 72.989 229.973 72.813C229.562 72.6297 229.24 72.373 229.005 72.043C228.77 71.713 228.653 71.328 228.653 70.888H229.995C230.024 71.218 230.153 71.4893 230.38 71.702C230.615 71.9147 230.941 72.021 231.359 72.021C231.792 72.021 232.129 71.9183 232.371 71.713C232.613 71.5003 232.734 71.229 232.734 70.899C232.734 70.6423 232.657 70.4333 232.503 70.272C232.356 70.1107 232.169 69.986 231.942 69.898C231.722 69.81 231.414 69.7147 231.018 69.612C230.519 69.48 230.112 69.348 229.797 69.216C229.489 69.0767 229.225 68.864 229.005 68.578C228.785 68.292 228.675 67.9107 228.675 67.434C228.675 66.994 228.785 66.609 229.005 66.279C229.225 65.949 229.533 65.696 229.929 65.52C230.325 65.344 230.783 65.256 231.304 65.256C232.045 65.256 232.65 65.443 233.119 65.817C233.596 66.1837 233.86 66.6897 233.911 67.335H232.525C232.503 67.0563 232.371 66.818 232.129 66.62C231.887 66.422 231.568 66.323 231.172 66.323C230.813 66.323 230.519 66.4147 230.292 66.598C230.065 66.7813 229.951 67.0453 229.951 67.39C229.951 67.6247 230.021 67.819 230.16 67.973C230.307 68.1197 230.49 68.237 230.71 68.325C230.93 68.413 231.231 68.5083 231.612 68.611C232.118 68.7503 232.529 68.8897 232.844 69.029C233.167 69.1683 233.438 69.3847 233.658 69.678C233.885 69.964 233.999 70.349 233.999 70.833C233.999 71.2217 233.893 71.5883 233.68 71.933C233.475 72.2777 233.17 72.5563 232.767 72.769C232.371 72.9743 231.902 73.077 231.359 73.077Z" fill="white"/>
<rect x="30" y="28" width="26" height="31" fill="white"/>
<path fill-rule="evenodd" clip-rule="evenodd" d="M34 42.8509C36.2091 42.8509 38 39.9742 38 36.4255C38 32.8768 36.2091 30 34 30H47C49.2091 30 51 32.8768 51 36.4255C51 39.9742 49.2091 42.8509 47 42.8509H34Z" fill="#890A00"/>
<path fill-rule="evenodd" clip-rule="evenodd" d="M34 57C36.2091 57 38 54.1232 38 50.5745C38 47.0258 36.2091 44.149 34 44.149H47C49.2091 44.149 51 47.0258 51 50.5745C51 54.1232 49.2091 57 47 57H34Z" fill="#890A00"/>
</g>
<defs>
<clipPath id="clip0_7_34">
<rect width="279" height="95" fill="white"/>
</clipPath>
</defs>
</svg>
