<svg xmlns="http://www.w3.org/2000/svg" width="68" height="68" viewBox="0 0 68 68" fill="none"><g clip-path="url(#clip0_963_9812)"><path d="M18.25 54.625H32.625C32.7631 54.625 32.875 54.5131 32.875 54.375V25.25C32.875 25.1119 32.7631 25 32.625 25H24.125C23.9869 25 23.875 25.1119 23.875 25.25V34.375C23.875 34.5131 23.7631 34.625 23.625 34.625H18.25C18.1119 34.625 18 34.7369 18 34.875V54.375C18 54.5131 18.1119 54.625 18.25 54.625Z" stroke="#890A00" stroke-width="2.5"></path><line x1="4.76749" y1="17.969" x2="10.219" y2="23.2325" stroke="#890A00" stroke-width="2.5" stroke-linecap="round"></line><line x1="31" y1="6.25" x2="31" y2="13.8278" stroke="#890A00" stroke-width="2.5" stroke-linecap="round"></line><line x1="57.9481" y1="17.1517" x2="52.3705" y2="22.2815" stroke="#890A00" stroke-width="2.5" stroke-linecap="round"></line><line x1="34.25" y1="40" x2="67.25" y2="40" stroke="#890A00" stroke-width="2.5" stroke-linecap="round"></line><line x1="34.25" y1="47" x2="67.25" y2="47" stroke="#890A00" stroke-width="2.5" stroke-linecap="round"></line><line x1="9" y1="62.25" x2="42" y2="62.25" stroke="#890A00" stroke-width="2.5" stroke-linecap="round"></line></g><defs><clipPath id="clip0_963_9812"><rect width="68" height="68" fill="white"></rect></clipPath></defs></svg>