<svg xmlns="http://www.w3.org/2000/svg" width="68" height="68" viewBox="0 0 68 68" fill="none"><path fill-rule="evenodd" clip-rule="evenodd" d="M14.7984 15.7111V21.4223H20.5317H26.265V20.098V18.7736H22.429C20.2588 18.7736 18.6169 18.7098 18.6484 18.6265C18.7398 18.3833 20.4641 17.0433 21.759 16.2088C23.456 15.115 25.3832 14.2557 27.4535 13.6694C30.0521 12.9335 31.58 12.7561 34.3858 12.8642C39.1782 13.0489 43.403 14.6158 47.0895 17.5755C49.6083 19.5977 51.4574 21.8673 52.921 24.7331C53.9955 26.8368 54.45 28.1224 54.8528 30.1959C55.7467 34.797 55.2656 39.2671 53.4411 43.3152C52.5869 45.2105 52.5552 45.0732 54.0359 45.8847L54.9683 46.3957L55.7253 44.7933C59.5133 36.7744 58.5145 27.1763 53.1457 20.0026C50.1607 16.0141 45.8295 12.8933 41.1383 11.351C38.1499 10.3683 37.3008 10.2478 33.4108 10.2536C29.5055 10.2596 28.4259 10.4284 25.2679 11.5279C22.894 12.3545 19.7246 14.1236 18.1221 15.5168L17.5404 16.0225L17.4951 13.0112L17.4499 10H16.124H14.7984V15.7111ZM11.2187 24.2893C10.3367 26.1438 9.37721 29.5258 9.12245 31.6782C8.86105 33.8863 9.03654 37.8522 9.47443 39.6318C10.324 43.0839 11.6783 46.1617 13.4444 48.6537C14.7562 50.5046 17.7679 53.457 19.588 54.6761C22.481 56.6137 25.9554 58.0385 29.1732 58.6068C31.4354 59.0063 35.5596 59.0056 37.8147 58.6054C39.918 58.2319 42.0015 57.548 44.166 56.5205C45.7638 55.762 48.6011 53.9715 49.0401 53.4446C49.1495 53.3134 49.3045 53.2061 49.3846 53.2061C49.4649 53.2061 49.5305 54.5097 49.5305 56.103V59H50.86H52.1894V53.3716V47.7432H46.4562H40.7229V49.0676V50.3919L44.5866 50.3969L48.4503 50.4018L47.7025 51.0595C46.7362 51.9092 44.5254 53.3768 43.2792 53.9955C37.7922 56.7202 31.5988 57.0461 25.8495 54.9128C16.9731 51.6189 11.1627 42.7911 11.7109 33.4318C11.8914 30.3512 12.544 27.7713 13.8125 25.1238C14.0966 24.5305 14.304 24.0279 14.2729 24.007C13.963 23.7975 12.0961 22.7466 12.034 22.7466C11.9889 22.7466 11.6222 23.4407 11.2187 24.2893ZM19.1192 27.595C19.1192 30.6636 19.983 35.6126 20.96 38.1419C22.8536 43.044 26.6683 45.9986 31.0012 45.9192C33.4941 45.8735 34.264 45.872 35.7374 45.91C37.5225 45.9562 38.4548 45.7462 40.2243 44.8984C41.373 44.3482 41.9031 43.9553 43.062 42.7959C44.2586 41.5987 44.6087 41.1176 45.2448 39.7973C46.1281 37.9641 46.5768 36.6519 47.0315 34.5722C47.4621 32.6031 47.8654 29.1411 47.8672 27.3986L47.8687 26.0084L45.1682 26.1046C41.2274 26.2452 38.391 26.8088 35.1621 28.0936C33.6678 28.688 33.4575 28.7324 33.0017 28.548C28.8059 26.8515 24.9601 26.0574 20.9387 26.0574H19.1192V27.595ZM25.8735 29.2123C27.8898 29.5752 29.9888 30.1688 31.2789 30.7412C34.7587 32.2854 36.9547 35.7687 36.393 38.854C36.2316 39.7407 36.0206 40.3598 35.7919 40.6172C35.7553 40.6584 34.4568 39.4301 32.9063 37.8876L30.0872 35.083L29.1335 36.0331L28.1797 36.9831L30.9955 39.7917L33.8112 42.6001L33.0039 42.956C32.3233 43.2558 31.9675 43.3008 30.7411 43.2424C29.4677 43.1818 29.1263 43.0945 28.0068 42.5433C24.8435 40.986 23.0347 37.6997 22.2013 31.9957C22.0599 31.028 21.9443 29.8861 21.9443 29.458V28.6798L23.066 28.7943C23.683 28.8574 24.9463 29.0454 25.8735 29.2123ZM44.9873 30.0718C44.6185 34.8466 43.2229 38.8656 41.2216 40.9157C40.3142 41.845 38.9096 42.7027 37.7608 43.0287L37.3745 43.1382L37.81 42.4827C39.8594 39.3977 39.4893 35.0342 36.9 31.752C36.4433 31.1731 36.0698 30.6669 36.0698 30.6268C36.0698 30.5442 37.692 30.0112 39.061 29.644C40.3524 29.2976 43.4255 28.792 44.6112 28.7309L45.0926 28.7061L44.9873 30.0718ZM24.7694 33.1821V34.5129L26.2234 34.4651L27.6775 34.4172L27.7261 33.1343L27.7746 31.8514H26.272H24.7694V33.1821Z" fill="#890A00"></path></svg>