<svg xmlns="http://www.w3.org/2000/svg" width="68" height="68" viewBox="0 0 68 68" fill="none"><path fill-rule="evenodd" clip-rule="evenodd" d="M28.7518 7.35868C26.0023 7.89095 24.2478 8.41454 22.8196 9.12902C22.5339 9.27192 22.1899 9.38879 22.0551 9.38879C21.9204 9.38879 21.7826 9.45119 21.7488 9.52725C21.6602 9.72794 20.5112 10.3119 20.205 10.3119C20.0619 10.3119 19.9446 10.3854 19.9446 10.4749C19.9446 10.5646 19.8002 10.6869 19.6235 10.7465C19.256 10.8707 18.699 11.2212 18.3338 11.5581C18.1962 11.6851 18.0225 11.7889 17.9478 11.7889C17.8731 11.7889 17.652 11.9351 17.4564 12.1136C17.2607 12.2921 16.7291 12.7256 16.275 13.0768C15.2925 13.8365 13.1384 15.9905 12.2384 17.1132C11.8852 17.5539 11.5111 18.0108 11.407 18.1286C10.4911 19.1665 7.83482 24.2387 7.83482 24.95C7.83482 25.1119 7.76161 25.2901 7.67207 25.3456C7.58272 25.4012 7.45134 25.7592 7.38052 26.1412C7.30951 26.5232 7.18621 26.9186 7.10621 27.0202C7.02622 27.1217 6.91925 27.4956 6.86824 27.851C6.81723 28.2064 6.68255 29.0372 6.56898 29.6972C6.08458 32.5127 6 33.2259 6 34.4974C6 35.7688 6.08458 36.482 6.56898 39.2975C6.68255 39.9575 6.81723 40.7883 6.86824 41.1437C6.91925 41.4991 7.02622 41.873 7.10621 41.9745C7.18621 42.0761 7.30951 42.4715 7.38052 42.8535C7.45134 43.2355 7.58272 43.5935 7.67207 43.6491C7.76161 43.7046 7.83482 43.8896 7.83482 44.0598C7.83482 44.353 8.2205 45.2364 9.26158 47.3286C9.80652 48.4237 11.4276 50.9051 12.2769 51.9441C13.0731 52.918 15.0879 54.927 16.0387 55.6949C16.4555 56.0316 17.0302 56.5098 17.3157 56.7576C17.601 57.0053 17.979 57.2548 18.1557 57.3116C18.3322 57.3687 18.4768 57.4927 18.4768 57.5874C18.4768 57.6822 18.5948 57.7597 18.739 57.7597C18.883 57.7597 19.1102 57.8635 19.2436 57.9905C19.3768 58.1175 19.9813 58.4705 20.5868 58.7751C21.1923 59.0797 21.7152 59.3912 21.7488 59.4674C21.7826 59.5435 21.9349 59.6059 22.0875 59.6059C22.2402 59.6059 22.5842 59.7204 22.8521 59.8603C24.2486 60.5899 25.686 61.0024 29.6373 61.807C30.9015 62.0643 36.1432 62.0643 37.4074 61.807C41.0574 61.0637 42.0043 60.7925 44.0329 59.9085C44.4147 59.742 44.8413 59.6059 44.981 59.6059C45.1204 59.6059 45.2621 59.5435 45.2958 59.4674C45.3294 59.3912 45.8523 59.082 46.4578 58.7799C47.0633 58.4779 47.6679 58.1247 47.8011 57.9953C47.9345 57.8657 48.1616 57.7597 48.3057 57.7597C48.4499 57.7597 48.5678 57.6945 48.5678 57.615C48.5678 57.5352 48.8361 57.3114 49.1642 57.1176C49.4922 56.9237 49.85 56.6773 49.9596 56.57C50.0691 56.4627 50.5157 56.0843 50.9518 55.7289C53.4296 53.7096 56.2301 50.3316 57.4667 47.8702C57.7695 47.2676 58.079 46.747 58.1548 46.7132C58.2306 46.6792 58.2924 46.5495 58.2924 46.4247C58.2924 46.3 58.4583 45.8523 58.661 45.4301C59.8105 43.0363 60.6072 39.5733 60.9854 35.3281C61.083 34.2311 60.6747 30.2769 60.2799 28.4971C60.0296 27.3697 59.2821 25.0144 58.9232 24.223C58.7781 23.903 58.6594 23.5803 58.6594 23.5059C58.6594 23.1073 56.1948 18.7329 55.6376 18.1426C55.5336 18.0324 55.1594 17.5792 54.8062 17.1355C54.0516 16.1877 51.5964 13.7169 50.8388 13.1429C50.5484 12.923 50.0632 12.5285 49.7605 12.2661C49.4577 12.004 49.1541 11.7892 49.0855 11.7891C49.017 11.7891 48.8484 11.6851 48.7108 11.5581C48.3457 11.2212 47.7886 10.8707 47.4211 10.7465C47.2446 10.6869 47.1 10.5646 47.1 10.4749C47.1 10.3854 46.9827 10.3119 46.8396 10.3119C46.5334 10.3119 45.3844 9.72794 45.2958 9.52725C45.2621 9.45119 45.1166 9.38879 44.9722 9.38879C44.8278 9.38879 44.5663 9.31106 44.3911 9.21598C43.6014 8.78784 42.7986 8.46568 42.5214 8.46568C42.3553 8.46568 42.1408 8.39127 42.0451 8.30044C41.8408 8.10696 40.7423 7.83593 38.2011 7.35167C35.7259 6.87996 31.2071 6.88328 28.7518 7.35868ZM36.458 9.02176C38.9745 9.37623 40.8366 9.82523 42.6047 10.5039C44.4371 11.2073 47.9147 13.1689 48.7185 13.9526C48.8519 14.0826 49.0277 14.189 49.1089 14.189C49.4328 14.189 53.3193 18.2285 53.9945 19.2666C54.3905 19.8755 54.7763 20.4015 54.8521 20.4353C54.9279 20.4692 54.9897 20.6145 54.9897 20.7583C54.9897 20.9024 55.0668 21.02 55.1609 21.02C55.255 21.02 55.3899 21.2068 55.4607 21.4354C55.5317 21.6639 55.6422 21.8923 55.7062 21.9431C55.7704 21.9938 56.1258 22.66 56.4963 23.4234C57.0662 24.5985 57.6482 26.252 58.477 29.051C58.8893 30.4436 59.0779 34.3303 58.8564 36.8696C58.7355 38.2557 58.5649 39.6391 58.4775 39.9437C57.5937 43.0215 56.813 45.2036 56.5952 45.2047C56.5194 45.205 56.4576 45.338 56.4576 45.5001C56.4576 45.7628 55.9609 46.8129 55.7237 47.0516C55.6732 47.1024 55.4745 47.4556 55.282 47.8363C55.0894 48.2172 54.8624 48.5286 54.7774 48.5286C54.6923 48.5286 54.6228 48.6172 54.6228 48.7256C54.6228 48.9484 53.8633 50.008 53.11 50.8364C52.8329 51.141 52.6057 51.4525 52.6054 51.5287C52.6039 51.7519 51.9898 51.6766 51.6412 51.4102C51.4647 51.2752 51.3201 51.0703 51.3201 50.9545C51.3201 50.8388 51.2538 50.7441 51.1729 50.7441C51.0918 50.7441 50.0698 49.7887 48.9018 48.6209C46.5226 46.2424 46.2367 46.111 45.6784 47.1382C45.445 47.5676 45.7206 48.2166 46.3945 48.8244C46.6312 49.0378 47.3504 49.7648 47.993 50.4398C48.6356 51.1148 49.2343 51.6672 49.3232 51.6672C49.4124 51.6672 49.4853 51.7918 49.4853 51.9441C49.4853 52.0964 49.6091 52.221 49.7605 52.221C49.9119 52.221 50.0357 52.2884 50.0357 52.3708C50.0357 52.4533 50.2082 52.707 50.419 52.9346L50.8021 53.3483L50.355 53.754C49.3933 54.6263 48.9251 54.9904 48.7653 54.9904C48.6735 54.9904 48.571 55.0548 48.5372 55.1335C48.3543 55.5614 45.0417 57.4401 42.7882 58.3939C40.1508 59.5099 37.0949 60.0675 33.6141 60.0675C30.4112 60.0675 28.6222 59.8051 25.7243 58.9101C24.3653 58.4904 20.8927 56.9376 20.6786 56.6538C20.6281 56.5868 20.112 56.2489 19.5318 55.9028C18.9515 55.5566 18.4768 55.2097 18.4768 55.1318C18.4768 55.0541 18.3948 54.9904 18.2948 54.9904C18.0953 54.9904 17.4091 54.4439 16.6137 53.6519C16.3333 53.3727 16.0185 53.1442 15.9143 53.1442C15.8099 53.1442 15.7218 53.0819 15.7183 53.0057C15.7148 52.9294 15.2954 52.4103 14.7862 51.8518C13.6474 50.6028 12.4219 48.98 12.4219 48.7212C12.4219 48.6152 12.3523 48.5286 12.2672 48.5286C12.1822 48.5286 11.9553 48.2172 11.7626 47.8363C11.5701 47.4556 11.3643 47.1024 11.305 47.0516C11.138 46.9084 9.66964 43.7598 9.66964 43.5449C9.66964 43.4401 9.59295 43.2098 9.49937 43.0335C9.22176 42.5107 8.75223 40.8315 8.75223 40.3613C8.75223 40.1215 8.67609 39.8462 8.58324 39.7498C8.49022 39.6533 8.31022 38.4322 8.18325 37.0359C7.99794 34.9968 7.99794 33.9979 8.18325 31.9588C8.31022 30.5627 8.49022 29.3412 8.58324 29.2449C8.67609 29.1483 8.75223 28.8732 8.75223 28.6334C8.75223 28.1632 9.22176 26.484 9.49937 25.9612C9.59295 25.7849 9.66964 25.5513 9.66964 25.4424C9.66964 25.1666 11.1929 22.0492 11.3645 21.9739C11.4415 21.9399 11.5045 21.8053 11.5045 21.6746C11.5045 21.4477 13.4231 18.6147 14.1672 17.7429C14.3622 17.5145 14.6479 17.3286 14.802 17.3301C14.9563 17.3316 15.7732 18.0378 16.6176 18.8994C17.4619 19.761 18.2256 20.4661 18.3148 20.4661C18.4039 20.4661 18.4768 20.5462 18.4768 20.6441C18.4768 20.9321 19.9991 22.3029 20.4566 22.4268C20.9626 22.5639 21.596 22.0586 21.596 21.5179C21.596 21.2915 20.6505 20.2002 19.1393 18.6825C17.7882 17.3253 16.5792 16.0893 16.4528 15.9358C16.2598 15.7019 16.3528 15.5389 17.0286 14.9256C17.4719 14.5233 17.8838 14.193 17.9436 14.1915C18.0036 14.1901 18.2926 13.9814 18.5858 13.7276C18.8792 13.4739 19.1749 13.2662 19.2436 13.266C19.312 13.266 19.4806 13.1621 19.6182 13.0351C19.9834 12.6981 20.5404 12.3477 20.9079 12.2235C21.0846 12.1638 21.229 12.0416 21.229 11.9519C21.229 11.8623 21.3059 11.7889 21.3997 11.7889C21.4936 11.7889 22.1334 11.5343 22.8216 11.2234C24.446 10.4891 24.6335 10.4153 25.7243 10.0819C27.6648 9.48848 28.2072 9.36829 30.4949 9.02471C31.8112 8.82698 35.0634 8.8255 36.458 9.02176ZM31.8557 21.0953C31.8137 21.1366 30.9536 21.2668 29.9444 21.3846C28.9353 21.5022 27.7793 21.6833 27.3757 21.7871C25.6352 22.2342 24.6117 22.5553 24.4491 22.7054C24.3532 22.7938 24.1394 22.8662 23.9739 22.8662C23.537 22.8662 21.109 24.1373 20.5356 24.6662C20.398 24.7933 20.2112 24.897 20.1206 24.897C19.69 24.897 17.7012 27.2173 17.1911 28.3151L16.642 29.4972V34.5132V39.5292L17.2229 40.7165C17.8135 41.9236 19.9311 44.2823 20.4241 44.2823C20.4945 44.2823 20.8077 44.4714 21.12 44.7025C21.9176 45.2929 23.5227 46.0392 24.9904 46.502C25.3941 46.6294 25.8895 46.7969 26.0913 46.8742C26.6799 47.0998 29.4143 47.5675 31.5499 47.8075C33.6564 48.0443 35.7951 47.8978 39.0268 47.2948C41.7563 46.7854 44.0034 45.9214 46.0141 44.608C47.7675 43.4626 48.6253 42.6809 49.3365 41.58C50.3849 39.9574 50.4027 39.8385 50.4027 34.4514V29.4655L49.8295 28.2939C49.0741 26.7501 47.602 25.2179 45.9112 24.2158C45.0681 23.716 43.245 22.8662 43.016 22.8662C42.8806 22.8662 42.6913 22.7938 42.5955 22.7054C42.4184 22.542 41.0759 22.1282 39.5772 21.7752C37.4441 21.2729 32.149 20.8065 31.8557 21.0953ZM36.4845 23.2347C37.5296 23.3359 38.7149 23.5088 39.1185 23.6192C40.6222 24.0304 41.8764 24.4242 42.0542 24.5411C42.1551 24.6073 42.4652 24.7163 42.7434 24.7831C44.0193 25.0898 47.6504 27.762 47.6504 28.3943C47.6504 28.4848 47.7123 28.5863 47.7881 28.6203C47.8638 28.6541 48.0702 28.9962 48.2468 29.3804C48.8434 30.6786 48.5778 32.658 47.6504 33.8226C46.675 35.0475 45.0481 36.3033 43.6138 36.9384C43.2606 37.095 42.6702 37.3573 42.3018 37.5216C41.9333 37.6861 41.5399 37.8205 41.4276 37.8205C41.3154 37.8205 41.0801 37.8946 40.9049 37.985C40.4756 38.2068 38.2725 38.6907 36.9167 38.8609C35.4623 39.0437 31.7165 39.0464 30.2196 38.8659C28.9367 38.7112 26.6318 38.2297 26.183 38.0225C26.0317 37.9527 25.3919 37.7334 24.761 37.5349C24.1304 37.3367 23.6143 37.1121 23.6143 37.0359C23.6143 36.9598 23.5183 36.8974 23.4011 36.8974C23.2836 36.8974 22.7677 36.6277 22.2543 36.2982C19.636 34.6172 18.4768 33.0303 18.4768 31.128C18.4768 30.1576 18.9456 28.5895 19.2357 28.5895C19.3228 28.5895 19.3942 28.5086 19.3942 28.4096C19.3942 27.7431 23.1101 25.0263 24.3678 24.7731C24.6598 24.7142 24.8987 24.5935 24.8987 24.5047C24.8987 24.4159 25.0431 24.3435 25.2198 24.3441C25.3964 24.3446 25.9124 24.2257 26.3665 24.0799C28.0083 23.5528 28.6865 23.4077 30.2196 23.255C32.4691 23.0312 34.3197 23.0251 36.4845 23.2347ZM29.0912 25.4363C28.8712 25.6154 28.6896 25.9857 28.6789 26.2761C28.6676 26.5894 28.5149 26.8769 28.2945 27.0002C27.7329 27.3146 26.7335 28.3995 26.7335 28.6949C26.7335 28.84 26.6509 28.9587 26.55 28.9587C26.279 28.9587 26.3272 29.7457 26.6362 30.3692C27.3041 31.7162 28.6674 32.2793 31.2811 32.2876L33.0636 32.2933L33.6599 33.0903C34.6285 34.3847 34.4999 34.4918 32.4858 34.0672C31.3044 33.8179 30.7088 33.9108 30.5328 34.3718C30.105 35.4941 31.6609 36.2142 34.5249 36.2188C35.8224 36.2208 36.0355 36.2708 36.4281 36.6659C36.7648 37.0047 36.985 37.0817 37.3518 36.989C37.9839 36.8293 38.0011 36.8048 37.9811 36.0895C37.967 35.5886 38.0686 35.4166 38.5411 35.1415C39.7976 34.4104 40.5352 33.0983 40.2313 32.1347C40.038 31.5222 39.0459 30.6153 38.142 30.2254C37.4688 29.9348 36.9274 29.8615 35.6324 29.8857C34.7241 29.9027 33.8919 29.9088 33.7829 29.8992C33.5939 29.8825 32.4214 28.3709 32.4214 28.144C32.4214 27.9551 34.4129 28.0273 34.5315 28.2202C34.7028 28.4992 35.5305 28.4414 35.8412 28.1288C36.3017 27.6654 36.0773 26.9092 35.3571 26.4975C34.8395 26.2016 34.3307 26.1236 32.7339 26.0961C30.9725 26.0659 30.7238 26.0206 30.4919 25.6872C30.1248 25.1597 29.5556 25.0578 29.0912 25.4363ZM30.4215 28.8086C30.5396 29.0307 30.7914 29.38 30.9811 29.5849C31.4976 30.1427 31.2963 30.3495 30.2921 30.2922C28.549 30.1929 28.0294 29.5844 29.0762 28.8686C29.9075 28.3001 30.1453 28.2894 30.4215 28.8086ZM37.4527 32.0109C37.8226 32.1663 38.1736 32.4202 38.2327 32.5751C38.3556 32.8976 37.7182 33.5742 37.2914 33.5742C37.1358 33.5742 37.0085 33.6614 37.0085 33.7681C37.0085 33.8816 36.901 33.9007 36.7487 33.8143C36.3624 33.5947 35.3571 32.2693 35.3571 31.9795C35.3571 31.6324 36.5966 31.6509 37.4527 32.0109ZM19.1419 36.3897C19.4085 36.6183 19.7188 36.8928 19.8314 37.0001C19.9441 37.1073 20.3048 37.3538 20.6327 37.5477L21.229 37.9001V40.0759C21.229 41.2724 21.1598 42.2515 21.0754 42.2515C20.7472 42.2515 19.4612 40.8182 18.9814 39.9177C18.5496 39.1075 18.4768 38.7542 18.4768 37.4725C18.4768 36.6486 18.5175 35.9743 18.5671 35.9743C18.6168 35.9743 18.8755 36.1612 19.1419 36.3897ZM48.5678 37.4725C48.5678 38.7558 48.4956 39.1053 48.0633 39.9106C47.5572 40.8533 46.1455 42.4361 45.8108 42.4361C45.7053 42.4361 45.6321 41.5695 45.6321 40.3201C45.6321 38.3812 45.6657 38.1726 46.0338 37.8277C46.2545 37.6208 46.4952 37.4513 46.5684 37.4513C46.6417 37.4513 47.0596 37.1212 47.497 36.7178C47.9347 36.3142 48.3545 35.9819 48.4302 35.9793C48.506 35.9765 48.5678 36.6486 48.5678 37.4725ZM24.0348 39.3263C24.4141 39.5307 24.8269 39.654 26.4583 40.051C26.8619 40.1492 27.4193 40.3207 27.6968 40.432L28.2013 40.6347V42.92V45.2054L27.605 45.2026C27.0531 45.2002 25.8647 44.87 24.9904 44.4763C24.7886 44.3853 24.2726 44.164 23.8436 43.9841L23.0638 43.6574V41.3852C23.0638 38.9381 23.1145 38.8308 24.0348 39.3263ZM43.7591 41.1587C43.8256 43.5503 43.7722 43.762 43.0247 44.067C42.6928 44.2024 42.2561 44.3805 42.0542 44.4629C39.317 45.5789 39.3937 45.6234 39.3937 42.9202C39.3937 40.3938 39.4097 40.3556 40.5935 40.0561C40.9933 39.9551 41.6163 39.7964 41.9779 39.7037C42.3394 39.6108 42.7935 39.4426 42.9871 39.3298C43.1805 39.217 43.4212 39.1496 43.5221 39.1799C43.6245 39.2107 43.7292 40.0846 43.7591 41.1587ZM37.5186 43.1013C37.5611 44.9547 37.5204 45.3769 37.2802 45.5776C36.8329 45.9511 30.4479 45.9439 30.2127 45.5695C30.1187 45.4199 30.0406 44.3235 30.0389 43.1327L30.0362 40.9674L33.3847 40.9096C35.2265 40.8779 36.8984 40.8554 37.1002 40.8594C37.4437 40.8663 37.4705 41.0101 37.5186 43.1013Z" fill="#890A00"></path></svg>