<svg xmlns="http://www.w3.org/2000/svg" width="66" height="60" viewBox="0 0 66 60" fill="none"><path d="M15.25 50.4175H29.625C29.7631 50.4175 29.875 50.3056 29.875 50.1675V21.0425C29.875 20.9044 29.7631 20.7925 29.625 20.7925H21.125C20.9869 20.7925 20.875 20.9044 20.875 21.0425V30.1675C20.875 30.3056 20.7631 30.4175 20.625 30.4175H15.25C15.1119 30.4175 15 30.5294 15 30.6675V50.1675C15 50.3056 15.1119 50.4175 15.25 50.4175Z" stroke="#890A00" stroke-width="2.5"></path><line x1="1.76749" y1="13.7615" x2="7.21899" y2="19.025" stroke="#890A00" stroke-width="2.5" stroke-linecap="round"></line><line x1="28" y1="2.04248" x2="28" y2="9.6203" stroke="#890A00" stroke-width="2.5" stroke-linecap="round"></line><line x1="54.948" y1="12.9442" x2="49.3705" y2="18.0739" stroke="#890A00" stroke-width="2.5" stroke-linecap="round"></line><line x1="31.25" y1="35.7925" x2="64.25" y2="35.7925" stroke="#890A00" stroke-width="2.5" stroke-linecap="round"></line><line x1="31.25" y1="42.7925" x2="64.25" y2="42.7925" stroke="#890A00" stroke-width="2.5" stroke-linecap="round"></line><line x1="6" y1="58.0425" x2="39" y2="58.0425" stroke="#890A00" stroke-width="2.5" stroke-linecap="round"></line></svg>