<svg xmlns="http://www.w3.org/2000/svg" width="68" height="68" viewBox="0 0 68 68" fill="none"><path fill-rule="evenodd" clip-rule="evenodd" d="M20.3212 12.9422C19.6062 13.2976 19.0409 14.1973 19.0392 14.9826C19.0389 15.1264 19.2577 16.019 19.5254 16.9662L20.0124 18.6885L19.6562 19.0591L19.3002 19.4295V23.6396V27.8496L19.6555 28.2193L20.0108 28.5891L19.5101 30.3705C19.0961 31.8434 19.0218 32.2361 19.0816 32.6375C19.1654 33.2017 19.4607 33.6805 19.9893 34.1093C20.5446 34.5598 21.309 34.6394 24.6665 34.596C27.1656 34.5638 27.626 34.5326 27.9852 34.3712C28.8337 33.9903 29.3304 33.2354 29.3166 32.348C29.3121 32.0571 29.0972 31.0831 28.8391 30.1833L28.3699 28.5474L28.636 28.3444C28.9616 28.0961 29.1903 27.5715 29.1903 27.0731V26.7004L29.6874 26.7011C29.9608 26.7015 35.0824 26.8911 41.0688 27.1223C54.341 27.6349 54.195 27.6334 54.9128 27.2726C55.5263 26.9643 55.9161 26.5465 56.2344 25.856C56.4286 25.4346 56.4533 25.1849 56.4533 23.6396C56.4533 22.0943 56.4286 21.8446 56.2344 21.4232C55.9106 20.7207 55.5183 20.3069 54.8753 19.9897L54.3012 19.7064L52.09 19.7558L49.8788 19.8053L49.6339 20.0924C49.3368 20.4407 49.3217 20.7882 49.5891 21.1212L49.7892 21.3704L51.918 21.3347C53.9955 21.2999 54.0542 21.3047 54.347 21.5371C54.8173 21.9101 54.9358 22.3334 54.9358 23.6396C54.9358 24.938 54.8169 25.3693 54.3587 25.7327C53.9725 26.0391 54.1781 26.0421 41.1211 25.5388C35.106 25.3071 29.9608 25.1173 29.6874 25.1173L29.1903 25.1172V23.6396V22.162H29.7094C29.9949 22.162 33.9388 22.0173 38.4738 21.8405C45.1437 21.5804 46.7641 21.4894 46.9536 21.3642C47.397 21.0712 47.3867 20.3962 46.9343 20.0972C46.7183 19.9545 45.8281 19.9714 38.3865 20.2586C33.8179 20.4348 29.8797 20.579 29.635 20.5789C29.1957 20.5788 29.1903 20.5742 29.1903 20.206C29.1903 19.7091 28.962 19.1838 28.6379 18.9347L28.3737 18.7318L28.8371 17.1486C29.1102 16.2158 29.306 15.327 29.3139 14.985C29.3345 14.0869 28.8909 13.3573 28.0704 12.9392C27.5717 12.6852 20.8331 12.6877 20.3212 12.9422ZM27.5612 14.4919C27.8385 14.6964 27.8045 14.9631 27.2521 16.9171L26.7529 18.6826L24.1871 18.6544L21.6213 18.6262L21.0976 16.761C20.5918 14.9596 20.5798 14.8863 20.7505 14.6237L20.9272 14.3517H24.1492C26.6624 14.3517 27.4129 14.3825 27.5612 14.4919ZM27.5957 23.666L27.5681 27.0698L24.1929 27.0976L20.8177 27.1255V23.6938V20.2622H24.2205H27.6233L27.5957 23.666ZM26.983 29.4181C27.5501 31.3533 27.7949 32.3529 27.7471 32.537C27.6362 32.9649 27.1611 33.033 24.2878 33.033C22.7966 33.033 21.4261 33.0027 21.2423 32.9656C21.0564 32.9281 20.8344 32.7845 20.7417 32.642C20.5847 32.4003 20.6043 32.2818 21.0888 30.5457L21.6022 28.7057H24.1883H26.7743L26.983 29.4181ZM15.8829 34.4981C15.2047 34.9319 15.0667 35.4414 15.5131 35.8643C15.8132 36.1485 16.1038 36.1541 16.6257 35.8856C17.4425 35.4654 17.6609 34.8243 17.1387 34.3787C16.8267 34.1125 16.4263 34.1506 15.8829 34.4981ZM31.1864 34.4721C30.7893 34.981 30.9302 35.3991 31.6397 35.8185C32.3402 36.2325 32.8622 36.1502 33.0723 35.593C33.2262 35.1846 33.0302 34.817 32.4798 34.4817C31.8714 34.111 31.4702 34.1081 31.1864 34.4721ZM19.4938 37.4821C19.2197 37.6187 18.7246 38.5057 18.7246 38.8602C18.7246 39.3776 19.3899 39.7335 19.8713 39.4736C20.1316 39.3331 20.6084 38.4906 20.6084 38.1712C20.6084 37.6326 19.9762 37.2417 19.4938 37.4821ZM28.0808 37.6065C27.6302 37.9974 27.7369 38.5938 28.3906 39.3392C28.6695 39.6574 29.129 39.6481 29.4566 39.3176C29.5979 39.1751 29.7135 38.9726 29.7135 38.8676C29.7135 38.5896 29.3224 37.873 29.0205 37.5978C28.6885 37.2952 28.437 37.2975 28.0808 37.6065ZM23.5971 38.8614C23.4929 39.0115 23.4341 39.328 23.4341 39.7401C23.4341 40.277 23.4745 40.4226 23.6763 40.6138C23.9977 40.9182 24.4276 40.9063 24.7471 40.5841C25.0923 40.2361 25.114 39.324 24.787 38.9049C24.4978 38.5339 23.8412 38.51 23.5971 38.8614ZM13.9849 43.7749C13.8025 43.8886 12.6278 45.5985 10.8507 48.3369C9.28738 50.7459 7.92339 52.8814 7.81968 53.0822C7.45495 53.7885 7.69503 54.6337 8.3754 55.0389C8.71836 55.2431 8.91784 55.25 14.5012 55.25C20.0296 55.25 20.2817 55.2416 20.4928 55.0489C20.7765 54.79 20.7927 54.1417 20.5216 53.8943C20.3487 53.7364 19.7997 53.7196 14.8092 53.7196C11.7458 53.7196 9.3036 53.679 9.32296 53.6283C9.34212 53.5781 10.5777 51.6545 12.0685 49.3538L14.7793 45.1706H34.4231H54.0668L56.7777 49.3538C58.2685 51.6545 59.5041 53.5781 59.5232 53.6283C59.5428 53.6795 51.5956 53.7196 41.4514 53.7196H23.3447L23.1278 53.9977C22.8453 54.3597 22.854 54.5911 23.1634 54.9538L23.416 55.25H41.7661H60.1163L60.4977 55.0108C61.1684 54.5901 61.3893 53.7848 61.0265 53.0822C60.9228 52.8814 59.5584 50.7451 57.9946 48.3351C56.0643 45.3604 55.0527 43.8945 54.8442 43.7703C54.5558 43.5985 53.3185 43.5876 34.407 43.5902C15.5392 43.5929 14.2584 43.6044 13.9849 43.7749Z" fill="#890A00" stroke="#890A00"></path></svg>