<svg xmlns="http://www.w3.org/2000/svg" width="68" height="68" viewBox="0 0 68 68" fill="none"><path fill-rule="evenodd" clip-rule="evenodd" d="M45.3651 9.36562C45.0213 9.79181 44.4524 12.7548 44.4524 14.1198C44.4524 15.7323 46.4415 16.191 46.9857 14.7042C47.5223 13.2384 47.876 10.1571 47.5739 9.58075C47.229 8.92262 45.8323 8.78665 45.3651 9.36562ZM30.0988 12.9044C29.5909 13.6962 29.5744 13.6478 31.2135 16.1811C32.516 18.1935 33.3588 18.6536 34.2442 17.8354C35.0694 17.0726 34.9457 16.5737 33.3619 14.2781C31.7586 11.9538 30.9319 11.6058 30.0988 12.9044ZM40.3362 17.2602C40.1801 17.3118 39.3608 17.5719 38.5157 17.8386C37.6703 18.1053 36.2893 18.7739 35.4464 19.3247C34.0563 20.2328 33.9223 20.4119 34.0026 21.255C34.1474 22.7789 35.1444 22.9093 37.1545 21.6676C42.5956 18.3071 49.4086 20.3009 52.188 26.0669C53.036 27.8258 53.1101 28.2045 53.1027 30.7413C53.0956 33.152 52.9968 33.7037 52.322 35.0962C51.8974 35.9732 51.314 36.9998 51.0259 37.3776L50.5024 38.0644L49.2758 37.157C47.6815 35.9776 44.8436 35.0962 42.6404 35.0962H40.8883L40.1031 33.2555C37.9755 28.2674 32.9892 24.9489 27.6222 24.9489C20.9452 24.9489 15.7812 29.1116 14.091 35.8567C13.819 36.9415 13.6918 37.0682 12.7139 37.228C9.69087 37.7214 6.21367 40.5647 4.76079 43.7307C4.08005 45.2139 4 45.7244 4 48.5776C4 51.4913 4.06927 51.9111 4.80337 53.4381C5.92099 55.7639 7.98137 57.8281 10.3092 58.9542L12.2324 59.8845L28.2615 59.9663C43.6794 60.0451 44.3627 60.0257 46.1869 59.4598C48.2115 58.8318 50.5154 57.2599 51.8678 55.5844C54.8727 51.8615 55.508 46.4942 53.4465 42.2523L52.4691 40.2414L53.5646 38.6443C58.9542 30.7862 55.1131 19.9884 46.0512 17.524C44.7655 17.1744 41.1092 17.0056 40.3362 17.2602ZM57.2203 18.8003C55.1932 20.1713 54.7821 20.7442 55.0975 21.7592C55.4634 22.9366 56.549 22.8018 58.657 21.3174C60.7217 19.8637 61.1373 19.2424 60.6581 18.328C60.1088 17.2799 59.3051 17.3904 57.2203 18.8003ZM32.0115 28.7782C35.0061 30.1864 37.1102 32.713 38.0564 36.0367C38.3158 36.9488 38.6795 37.7916 38.8646 37.9102C39.0494 38.0285 40.542 38.1288 42.1814 38.1328C44.8518 38.1395 45.31 38.2204 46.5815 38.9087C49.7547 40.6267 51.5649 43.4462 51.7656 46.983C51.8653 48.7428 51.7673 49.4862 51.2515 50.8822C50.4811 52.9684 48.5805 55.142 46.5872 56.217L45.1621 56.9853H28.8392C12.6846 56.9853 12.5047 56.9789 11.3808 56.3628C7.11498 54.0237 5.45572 48.6181 7.70715 44.3937C9.08792 41.8024 11.4895 40.2043 14.5551 39.8364C16.2842 39.6288 16.4645 39.4183 16.7361 37.2941C17.2451 33.3164 20.1012 29.8935 24.2816 28.252C25.9789 27.5858 30.067 27.8638 32.0115 28.7782ZM57.8094 33.0386C57.4168 33.7881 57.6467 34.7118 58.3107 35.051C58.5733 35.1849 59.7042 35.4557 60.8241 35.6526C63.3776 36.1016 64.1174 35.814 63.9854 34.4247C63.9104 33.6332 63.7361 33.4477 62.7625 33.1221C62.1379 32.9137 60.8423 32.6678 59.8831 32.5759C58.2965 32.424 58.1097 32.4657 57.8094 33.0386Z" fill="#890A00"></path></svg>