<svg xmlns="http://www.w3.org/2000/svg" width="24" height="24" viewBox="0 0 24 24" fill="none"><path fill-rule="evenodd" clip-rule="evenodd" d="M9.72501 0.259784C7.4223 0.818728 5.15931 2.27651 3.60761 4.20058C0.80692 7.67325 0.22122 12.2139 2.04985 16.2757C3.08168 18.5675 5.05761 20.6244 7.33752 21.7801L8.30296 22.2694L8.30498 20.7464C8.30646 19.6357 8.49826 18.4004 9.01352 16.1836C9.50838 14.0545 9.67297 13.0162 9.56318 12.7174C9.32283 12.0636 9.37653 10.7167 9.67113 10.0102C9.95984 9.31785 10.9067 8.63215 11.5753 8.63105C11.8076 8.63068 12.2006 8.83388 12.4488 9.08259C13.0388 9.67359 13.0367 10.5033 12.4406 12.4991C11.8517 14.4701 11.8499 15.1481 12.4323 15.7313C13.0472 16.3476 14.1585 16.3437 15.2179 15.7216C15.836 15.3588 16.1353 14.9941 16.6133 14.0215C17.1657 12.8974 17.2218 12.6302 17.2218 11.1212C17.2218 9.63674 17.1674 9.36667 16.712 8.59052C14.5406 4.88996 8.66192 5.71824 7.49788 9.88858C7.12954 11.2078 7.21137 12.1638 7.79027 13.308C8.06555 13.852 8.12422 14.2175 8.03356 14.8236C7.96772 15.2628 7.82944 15.6748 7.72609 15.7387C7.62274 15.8026 7.13432 15.4355 6.64093 14.9224C3.93016 12.105 5.1365 6.84847 8.90282 5.06773C11.9093 3.64606 15.5682 4.08617 17.8404 6.14251C21.044 9.04206 20.2968 15.1536 16.4636 17.4041C15.0318 18.2447 12.8289 18.2228 11.8026 17.3577C11.3962 17.015 11.2241 16.955 11.1649 17.1348C11.1204 17.2702 10.9124 18.0277 10.703 18.8179C10.4933 19.6082 10.0746 20.7456 9.77227 21.3458C9.46976 21.9459 9.22243 22.4739 9.22243 22.519C9.22243 22.7132 11.1958 23 12.5325 23C14.3985 23 15.6109 22.7386 17.2637 21.9798C20.5331 20.479 22.9125 17.6169 23.7673 14.1571C24.1128 12.7588 24.0667 9.91364 23.6748 8.46082C22.5917 4.44394 19.2683 1.19234 15.2909 0.257942C13.8236 -0.0867468 11.1491 -0.0858256 9.72501 0.259784Z" fill="white"></path></svg>